<svg width="100%" height="100%" viewBox="0 0 630 630" xmlns="http://www.w3.org/2000/svg">
  <!-- Background -->
  <rect x="1" y="1" width="628" height="628" fill="white" />
  <!-- Color tiles -->
  <g fill="#f8333c">
	<rect x="280" y="30" width="70" height="210"/>
	<rect x="210" y="120" width="70" height="30"/>
    <polygon points="240,240 315,315 390,240" />
  </g>
  <g fill="#f1db4b">
	<rect x="280" y="390" width="70" height="210"/>
	<rect x="350" y="480" width="70" height="30"/>
    <polygon points="240,390 315,315 390,390" />
  </g>
  <g fill="#44af69">
	<rect x="30" y="280" width="210" height="70"/>
	<rect x="120" y="350" width="30" height="70"/>
    <polygon points="240,240 315,315 240,390" />
  </g>
  <g fill="#2b9eb3">
	<rect x="390" y="280" width="210" height="70"/>
	<rect x="480" y="210" width="30" height="70"/>
    <polygon points="390,240 315,315 390,390" />
  </g>
  <g fill="#cfdbd5">
	<rect x="280" y="0" width="70" height="30"/>
	<rect x="350" y="120" width="70" height="30"/>
	<rect x="210" y="480" width="70" height="30"/>
	<rect x="280" y="600" width="70" height="30"/>
	<rect x="0" y="280" width="30" height="70"/>
	<rect x="120" y="210" width="30" height="70"/>
	<rect x="480" y="350" width="30" height="70"/>
	<rect x="600" y="280" width="30" height="70"/>
  </g>
  <!-- Lines -->
  <g stroke="black" stroke-width="2">
    <!-- Quadrants definition -->
    <line x1="0" y1="210" x2="630" y2="210" />
    <line x1="0" y1="420" x2="630" y2="420" />
    <line x1="210" y1="0" x2="210" y2="630" />
    <line x1="420" y1="0" x2="420" y2="630" />
    <!-- Top path -->
    <line x1="280" y1="0" x2="280" y2="240" />
    <line x1="350" y1="0" x2="350" y2="240" />
    <line x1="210" y1="30" x2="420" y2="30" />
    <line x1="210" y1="60" x2="420" y2="60" />
    <line x1="210" y1="90" x2="420" y2="90" />
    <line x1="210" y1="120" x2="420" y2="120" />
    <line x1="210" y1="150" x2="420" y2="150" />
    <line x1="210" y1="180" x2="420" y2="180" />
    <line x1="240" y1="240" x2="390" y2="240" />
    <!-- Bottom path -->
    <line x1="280" y1="390" x2="280" y2="630" />
    <line x1="350" y1="390" x2="350" y2="630" />
    <line x1="210" y1="600" x2="420" y2="600" />
    <line x1="210" y1="570" x2="420" y2="570" />
    <line x1="210" y1="540" x2="420" y2="540" />
    <line x1="210" y1="510" x2="420" y2="510" />
    <line x1="210" y1="480" x2="420" y2="480" />
    <line x1="210" y1="450" x2="420" y2="450" />
    <line x1="240" y1="390" x2="390" y2="390" />
    <!-- Left path -->
    <line x1="0" y1="280" x2="240" y2="280" />
    <line x1="0" y1="350" x2="240" y2="350" />
    <line x1="30" y1="210" x2="30" y2="420" />
    <line x1="60" y1="210" x2="60" y2="420" />
    <line x1="90" y1="210" x2="90" y2="420" />
    <line x1="120" y1="210" x2="120" y2="420" />
    <line x1="150" y1="210" x2="150" y2="420" />
    <line x1="180" y1="210" x2="180" y2="420" />
    <line x1="240" y1="240" x2="240" y2="390" />
    <!-- Right path -->
    <line x1="390" y1="280" x2="630" y2="280" />
    <line x1="390" y1="350" x2="630" y2="350" />
    <line x1="600" y1="210" x2="600" y2="420" />
    <line x1="570" y1="210" x2="570" y2="420" />
    <line x1="540" y1="210" x2="540" y2="420" />
    <line x1="510" y1="210" x2="510" y2="420" />
    <line x1="480" y1="210" x2="480" y2="420" />
    <line x1="450" y1="210" x2="450" y2="420" />
    <line x1="390" y1="240" x2="390" y2="390" />
    <!-- Center -->
    <line x1="210" y1="210" x2="420" y2="420" />
    <line x1="210" y1="420" x2="420" y2="210" />
  </g>
  <!-- Border -->
  <rect x="1" y="1" width="628" height="628" fill="none" stroke="black" stroke-width="2" />
</svg>